<svg width="40" height="40" viewBox="0 0 40 40" fill="none" xmlns="http://www.w3.org/2000/svg">
<path d="M19.8942 28.6293V4.62865C19.8942 4.07043 19.2166 3.78993 18.8222 4.1843L5.1833 17.8204C4.9389 18.0648 4.9389 18.462 5.1833 18.7091L16.9615 30.4873C17.6669 29.5486 18.7028 28.871 19.8942 28.6293Z" fill="#00DC87"/>
<path d="M33.5299 20.1729H22.4294C22.0823 20.1729 21.8018 20.4533 21.8018 20.8005V28.6184C23.0015 28.8516 24.0457 29.521 24.7595 30.4597L33.9743 21.2449C34.3687 20.8505 34.0909 20.1729 33.5299 20.1729Z" fill="#00DC87"/>
<path d="M20.8716 36.3998C22.5173 36.3998 23.8515 35.0657 23.8515 33.4199C23.8515 31.7741 22.5173 30.4399 20.8716 30.4399C19.2258 30.4399 17.8916 31.7741 17.8916 33.4199C17.8916 35.0657 19.2258 36.3998 20.8716 36.3998Z" fill="#002D37"/>
</svg>
