<svg width="356" height="499" viewBox="0 0 356 499" fill="none" xmlns="http://www.w3.org/2000/svg">
    <g opacity=".3" clip-path="url(#py6q1uoyoa)">
        <path d="M78 354 3.5 436.5" stroke="#FF801D"/>
        <path d="M127 253 90.5 472l105-165.5L127 253zm0 0L77.5 355M274 233.5 297.5 491" stroke="#FF801D" stroke-opacity=".7"/>
        <path d="M255 416.5 195.5 306 175 497l80-80.5zM354 341.5 274 233l51.5-46.5-100-37.5M243 48.5l-71 94 51.5 6.5L243 48.5z" stroke="#FF801D"/>
        <path d="m170 142.5 55.5 6m128-62-128 62m0 0 49 84.5m-49-84.5-98 105m128 163.5 41.5 72.5-121.5 6.5 80-79z" stroke="#FF801D" stroke-opacity=".7"/>
        <path d="m273.5 233.5-78 73M77.5 354.5 56.5 254l-54 183.5 75-83z" stroke="#FF801D"/>
        <path d="M170.5 143 96 219l31 34.5L170.5 143zm0 0-126-46.5L50 18l120.5 125z" stroke="#FF801D" stroke-opacity=".5"/>
        <path d="M56 254.5h72l-32.5-36-39.5 36zm0 0L8 242M45 96l11 157.5M7.5 242.5 45 96" stroke="#FF801D"/>
        <path d="m297.5 490 55-149.5M90 473 78 354.5" stroke="#FF801D" stroke-dasharray="6 6"/>
        <path d="m275 233-148 20M96 218 45 96.5" stroke="#FF801D" stroke-opacity=".7" stroke-dasharray="6 6"/>
        <circle cx="3" cy="3" r="3" transform="matrix(-1 0 0 1 300 487)" fill="#fff"/>
        <circle cx="3" cy="3" r="3" transform="matrix(-1 0 0 1 199 303)" fill="#fff"/>
        <circle cx="3" cy="3" r="3" transform="matrix(-1 0 0 1 81 351)" fill="#fff"/>
        <circle cx="3" cy="3" r="3" transform="matrix(-1 0 0 1 6 433)" fill="#fff"/>
        <circle cx="3" cy="3" r="3" transform="matrix(-1 0 0 1 258 414)" fill="#fff"/>
        <circle cx="3" cy="3" r="3" transform="matrix(-1 0 0 1 59 250)" fill="#fff"/>
        <circle cx="3" cy="3" r="3" transform="matrix(-1 0 0 1 11 239)" fill="#fff"/>
        <circle cx="3" cy="3" r="3" transform="matrix(-1 0 0 1 93 470)" fill="#fff"/>
        <circle cx="3" cy="3" r="3" transform="matrix(-1 0 0 1 178 493)" fill="#FFD9BB"/>
        <circle cx="3" cy="3" r="3" transform="matrix(-1 0 0 1 356 337)" fill="#FFE1CA"/>
        <circle cx="3" cy="3" r="3" transform="matrix(-1 0 0 1 130 250)" fill="#fff"/>
        <circle cx="3" cy="3" r="3" transform="matrix(-1 0 0 1 277 230)" fill="#FFE1CA"/>
        <circle cx="3" cy="3" r="3" transform="matrix(-1 0 0 1 329 183)" fill="#fff"/>
        <circle cx="3" cy="3" r="3" transform="matrix(-1 0 0 1 356 83)" fill="#fff"/>
        <circle cx="3" cy="3" r="3" transform="matrix(-1 0 0 1 173 140)" fill="#FFD9BB"/>
        <circle cx="3" cy="3" r="3" transform="matrix(-1 0 0 1 246 45)" fill="#fff"/>
        <circle cx="3" cy="3" r="3" transform="matrix(-1 0 0 1 228 146)" fill="#fff"/>
        <circle cx="3" cy="3" r="3" transform="matrix(-1 0 0 1 47 93)" fill="#FFD9BB"/>
        <circle cx="3" cy="3" r="3" transform="matrix(-1 0 0 1 53 15)" fill="#fff"/>
        <circle cx="3" cy="3" r="3" transform="matrix(-1 0 0 1 99 216)" fill="#FFD9BB"/>
    </g>
    <defs>
        <clipPath id="py6q1uoyoa">
            <path fill="#fff" d="M0 0h356v499H0z"/>
        </clipPath>
    </defs>
</svg>
