<svg width="20" height="20" viewBox="0 0 20 20" fill="none" xmlns="http://www.w3.org/2000/svg">
<path d="M2.90398 2.95775C4.87121 0.985906 7.23652 0 10 0C12.7635 0 15.121 0.978081 17.0726 2.93427C19.0242 4.89046 20 7.24568 20 10C20 12.7543 19.0242 15.1095 17.0726 17.0657C15.121 19.0219 12.7635 20 10 20C7.23652 20 4.87901 19.0219 2.9274 17.0657C0.975791 15.1095 0 12.7543 0 10C0 7.24568 0.967985 4.89829 2.90398 2.95775ZM14.9883 13.615L11.3817 10L14.9883 6.38498L13.5831 4.97653L9.97658 8.59155L6.41686 4.97653L5.01171 6.38498L8.57143 10L5.01171 13.615L6.41686 15.0235L9.97658 11.4085L13.5831 15.0235L14.9883 13.615Z" fill="#7D7D7D"/>
</svg>
